<svg width="25" height="24" viewBox="0 0 25 24" fill="none" xmlns="http://www.w3.org/2000/svg">
<path d="M4.66 16.75C4.42 19.64 6.6 22 9.5 22H14.29C17.55 22 19.79 19.37 19.25 16.15C18.68 12.77 15.42 10 11.99 10C8.27 10 4.97 13.04 4.66 16.75Z" stroke="#979593" stroke-width="1.5" stroke-linecap="round" stroke-linejoin="round"/>
<path d="M10.72 7.5C12.1007 7.5 13.22 6.38071 13.22 5C13.22 3.61929 12.1007 2.5 10.72 2.5C9.33929 2.5 8.22 3.61929 8.22 5C8.22 6.38071 9.33929 7.5 10.72 7.5Z" stroke="#979593" stroke-width="1.5" stroke-linecap="round" stroke-linejoin="round"/>
<path d="M17.55 8.70001C18.6546 8.70001 19.55 7.80458 19.55 6.70001C19.55 5.59544 18.6546 4.70001 17.55 4.70001C16.4454 4.70001 15.55 5.59544 15.55 6.70001C15.55 7.80458 16.4454 8.70001 17.55 8.70001Z" stroke="#979593" stroke-width="1.5" stroke-linecap="round" stroke-linejoin="round"/>
<path d="M21.25 12.7C22.0784 12.7 22.75 12.0284 22.75 11.2C22.75 10.3716 22.0784 9.70001 21.25 9.70001C20.4216 9.70001 19.75 10.3716 19.75 11.2C19.75 12.0284 20.4216 12.7 21.25 12.7Z" stroke="#979593" stroke-width="1.5" stroke-linecap="round" stroke-linejoin="round"/>
<path d="M4.22 10.7C5.32457 10.7 6.22 9.80458 6.22 8.70001C6.22 7.59544 5.32457 6.70001 4.22 6.70001C3.11543 6.70001 2.22 7.59544 2.22 8.70001C2.22 9.80458 3.11543 10.7 4.22 10.7Z" stroke="#979593" stroke-width="1.5" stroke-linecap="round" stroke-linejoin="round"/>
</svg>
